<svg xmlns="http://www.w3.org/2000/svg" xmlns:xlink="http://www.w3.org/1999/xlink" viewBox="0 0 2500 2500"><defs><style>      .cls-1 {        fill: url(#linear-gradient);      }      .cls-2 {        fill: #fff;      }    </style><linearGradient id="linear-gradient" x1="13.3" y1="1251.9" x2="2484.9" y2="1251.9" gradientUnits="userSpaceOnUse"><stop offset="0" stop-color="#6100a5"></stop><stop offset="1" stop-color="#ed0677"></stop></linearGradient></defs><g><g id="Layer_1"><path class="cls-1" d="M1249.1,2487.7c682.5,0,1235.8-553.3,1235.8-1235.8S1931.6,16.1,1249.1,16.1,13.3,569.4,13.3,1251.9s553.3,1235.8,1235.8,1235.8Z"></path><g><path class="cls-2" d="M570.2,1081c-31.5-37.8-79.4-61.3-138.7-61.3-118.7-.7-195.9,83.4-195.9,193.1v251.5h36.5c25-1.4,73.7-13.5,75.1-85.5v-168.1c0-49.2,34.3-82.6,84.4-82.6,73.7,0,81.5,58.4,81.5,82.6v253.6h36.5c24.3-1.4,72.9-13.5,75.1-84.8v-168.8c0-49.2,35.8-82.6,84.4-82.6,73.7,0,82.2,58.4,82.2,82.6v253.6h36.5c25-1.4,74.4-13.5,75.1-86.9v-164.6c0-114-72.2-193.8-193.8-193.8s-105.8,24.2-138.7,62"></path><path class="cls-2" d="M1224.4,1078.1l-93.7,259.3-102.2-268.6c-15.7-42.7-55.8-39.9-55.8-39.9h-87.2l173,421.8q0-.7-.7-1.4s0,.7.7,1.4c0,.7.7,1.4.7,1.4l-.7-2.1c5.7,17.1,4.3,26.4-1.4,43.4l-3.6,10.7c-20,49.9-48.6,63.4-108.7,59.8v.7l41.5,101.9c77.2-1.4,135.9-27.1,174.5-123.2l208.1-514.4h-77.9c-3.6,0-47.9,1.4-66.5,49.2M1451.8,1248.4c0-74.8,47.9-127.5,107.3-127.5s107.3,52,107.3,127.5-47.9,124-107.3,124-107.3-50.6-107.3-124M1340.3,1247.6c0,129.7,98,226.6,218.8,226.6s219.5-96.9,219.5-226.6-98.7-228-219.5-228c-120.8-.7-218.8,98.3-218.8,228M1927.3,1248.4c0-69.1,50.1-124.7,111.5-124.7s111.5,54.2,111.5,124.7-50.1,121.8-111.5,121.8c-61.5.7-111.5-54.2-111.5-121.8M1904.4,837.3c-75.8,0-87.9,51.3-89.4,75.5v551.4h53.6c42.9.7,52.9-26.4,53.6-42v-4.3c33.6,35.6,80.1,55.6,133,55.6,114.4,0,207.4-97.6,207.4-225.8s-92.9-226.6-207.4-226.6-94.4,18.5-128,50.6v-234.4h-22.9Z"></path></g></g></g></svg>